<svg width="65" height="65" viewBox="0 0 65 65" fill="none" xmlns="http://www.w3.org/2000/svg">
<path d="M18.5713 0.580078H46.4287C56.3648 0.580152 64.4198 8.6352 64.4199 18.5713V46.4287C64.4198 56.3648 56.3648 64.4198 46.4287 64.4199H18.5713C8.63521 64.4198 0.580152 56.3648 0.580078 46.4287V18.5713C0.580153 8.63521 8.63521 0.580152 18.5713 0.580078Z" fill="#FAFAFA"/>
<path d="M18.5713 0.580078H46.4287C56.3648 0.580152 64.4198 8.6352 64.4199 18.5713V46.4287C64.4198 56.3648 56.3648 64.4198 46.4287 64.4199H18.5713C8.63521 64.4198 0.580152 56.3648 0.580078 46.4287V18.5713C0.580153 8.63521 8.63521 0.580152 18.5713 0.580078Z" stroke="#EEEEEE" stroke-width="1.16071"/>
<path d="M45.7618 32.8653C45.4329 31.6368 44.7751 30.5558 43.8729 29.705C44.61 27.9727 44.4988 25.9844 43.5563 24.3509C42.6522 22.7857 41.1929 21.6658 39.447 21.1978C38.2179 20.8689 36.9517 20.8975 35.7622 21.255C34.6292 19.7483 32.8651 18.85 30.9704 18.85C27.7815 18.85 25.1067 21.0704 24.395 24.0441C24.3885 24.0448 24.3826 24.0422 24.3761 24.0428C22.4898 24.2768 20.8635 25.3552 19.9139 26.9997C19.0097 28.5649 18.7699 30.3888 19.2379 32.1347C19.5674 33.3638 20.2252 34.4461 21.1287 35.2969C20.3916 37.0298 20.4982 39.011 21.4433 40.649C22.3475 42.2142 23.8067 43.3342 25.5526 43.8022C26.135 43.9582 26.7272 44.0355 27.3148 44.0355C27.9667 44.0355 28.6115 43.9309 29.2368 43.743C30.3691 45.2523 32.1261 46.15 34.0293 46.15C37.2214 46.15 39.8975 43.9257 40.6073 40.948C42.4793 40.7205 44.1374 39.6441 45.0864 38.0003C45.9899 36.4351 46.2298 34.6112 45.7618 32.8653ZM39.1103 22.4529C40.5215 22.8306 41.6999 23.736 42.4299 25.0003C43.1117 26.1813 43.2378 27.6003 42.7997 28.8788C42.7354 28.8385 42.6743 28.7937 42.6086 28.7553L36.6488 25.3142C36.446 25.1979 36.1951 25.1992 35.9923 25.3181L29.3636 29.2448L29.3298 26.2502L34.9607 22.9996C36.2263 22.269 37.6998 22.0759 39.1103 22.4529ZM35.5789 30.6767L35.6192 34.2543L32.5408 36.0776L29.4214 34.3232L29.3811 30.7456L32.4595 28.9224L35.5789 30.6767ZM25.5026 25.6178C25.5026 22.6024 27.9557 20.15 30.9704 20.15C32.3412 20.15 33.6302 20.7454 34.5181 21.7672C34.4498 21.8036 34.379 21.8341 34.3114 21.8731L28.3509 25.3142C28.1481 25.4319 28.0233 25.6503 28.0259 25.8843L28.1123 33.5874L25.5026 32.1197V25.6178ZM20.493 31.7986C20.1154 30.3881 20.3097 28.9139 21.0397 27.6497C21.7287 26.4563 22.8746 25.6516 24.2143 25.3916C24.2117 25.467 24.2026 25.5411 24.2026 25.6178V32.5C24.2026 32.7346 24.3293 32.9511 24.5341 33.0668L31.2479 36.8433L28.6713 38.3695L23.041 35.1182C21.7761 34.3882 20.8713 33.2098 20.493 31.7986ZM25.8893 42.547C24.4782 42.1694 23.2997 41.2639 22.5698 39.9997C21.8853 38.8141 21.7579 37.399 22.1973 36.1192C22.263 36.1601 22.3247 36.2056 22.3917 36.2446L28.3515 39.6857C28.4516 39.7436 28.5641 39.7728 28.6765 39.7728C28.7916 39.7728 28.906 39.7423 29.008 39.6818L35.6367 35.7552L35.6705 38.7497L30.0396 42.0004C28.7747 42.7316 27.3005 42.926 25.8893 42.547ZM39.4971 39.3822C39.4971 42.3975 37.0446 44.85 34.0293 44.85C32.6519 44.85 31.3682 44.2526 30.4809 43.2289C30.5492 43.1925 30.6213 43.1652 30.6889 43.1262L36.6494 39.6851C36.8522 39.5674 36.977 39.349 36.9744 39.115L36.8873 31.4125L39.4971 32.8802V39.3822ZM43.96 37.3503C43.2736 38.5398 42.114 39.3562 40.7854 39.6142C40.788 39.5362 40.7971 39.4602 40.7971 39.3822V32.5C40.7971 32.2653 40.6703 32.0489 40.4656 31.9332L33.7517 28.1567L36.3283 26.6305L41.9586 29.8818C43.2235 30.6117 44.1283 31.7908 44.5066 33.2013C44.8843 34.6118 44.6899 36.086 43.96 37.3503Z" fill="black"/>
</svg>
