<svg width="65" height="65" viewBox="0 0 65 65" fill="none" xmlns="http://www.w3.org/2000/svg">
<path d="M18.5713 0.580078H46.4287C56.3648 0.580152 64.4198 8.6352 64.4199 18.5713V46.4287C64.4198 56.3648 56.3648 64.4198 46.4287 64.4199H18.5713C8.63521 64.4198 0.580152 56.3648 0.580078 46.4287V18.5713C0.580153 8.63521 8.63521 0.580152 18.5713 0.580078Z" fill="#FAFAFA"/>
<path d="M18.5713 0.580078H46.4287C56.3648 0.580152 64.4198 8.6352 64.4199 18.5713V46.4287C64.4198 56.3648 56.3648 64.4198 46.4287 64.4199H18.5713C8.63521 64.4198 0.580152 56.3648 0.580078 46.4287V18.5713C0.580153 8.63521 8.63521 0.580152 18.5713 0.580078Z" stroke="#EEEEEE" stroke-width="1.16071"/>
<g clip-path="url(#clip0_2225_1128)">
<path d="M48.4086 23.0709C48.0647 22.9023 47.9164 23.224 47.7146 23.3871C47.6456 23.44 47.5873 23.5083 47.5291 23.5713C47.026 24.1089 46.4383 24.4617 45.6698 24.4197C44.5472 24.3567 43.5885 24.7095 42.7408 25.568C42.5607 24.5091 41.9621 23.8767 41.0514 23.4711C40.5748 23.2605 40.0927 23.0493 39.7589 22.5909C39.526 22.2645 39.4623 21.9009 39.3459 21.5428C39.2714 21.3268 39.1976 21.1054 38.9484 21.0688C38.6783 21.0268 38.5726 21.253 38.4663 21.4432C38.0425 22.2178 37.8786 23.0716 37.8942 23.9356C37.9314 25.8795 38.7521 27.4286 40.3832 28.5296C40.5687 28.6562 40.6161 28.7821 40.5579 28.967C40.4468 29.3461 40.3141 29.7152 40.1976 30.0943C40.1232 30.3367 40.0121 30.3895 39.7528 30.2839C38.8577 29.9102 38.0845 29.357 37.4013 28.6873C36.2414 27.5654 35.1926 26.327 33.8845 25.3575C33.5771 25.1306 33.2704 24.9201 32.9522 24.7196C31.6176 23.4237 33.1269 22.3593 33.4762 22.2327C33.8419 22.1007 33.6035 21.6477 32.422 21.6531C31.2412 21.6585 30.1606 22.0533 28.7834 22.5801C28.5823 22.6593 28.3704 22.7168 28.153 22.7642C26.9031 22.5272 25.6051 22.4744 24.2496 22.6275C21.697 22.9118 19.6576 24.1184 18.1586 26.1788C16.3575 28.6548 15.9344 31.4681 16.453 34.4033C16.9987 37.4962 18.577 40.0563 21.0023 42.0584C23.5184 44.1343 26.4149 45.1513 29.7205 44.9563C31.728 44.8405 33.9631 44.5717 36.4838 42.4382C37.1196 42.7544 37.7865 42.881 38.8936 42.9758C39.746 43.0551 40.5673 42.9339 41.2031 42.8018C42.1991 42.5913 42.13 41.6691 41.7698 41.5005C39.2707 40.625 38.9125 40.2465 38.9125 40.2465C40.3954 38.4922 42.6304 36.6688 43.5045 30.7626C43.5736 30.2941 43.5153 29.9989 43.5045 29.619C43.4991 29.3875 43.5519 29.2974 43.8173 29.271C44.5479 29.1864 45.2582 28.9866 45.9095 28.6284C47.8006 27.5959 48.563 25.8991 48.7431 23.8658C48.7688 23.5557 48.737 23.2341 48.4086 23.0709ZM31.9318 41.3745C29.1036 39.151 27.7319 38.4191 27.1651 38.4502C26.6357 38.482 26.7311 39.088 26.8476 39.4828C26.9695 39.8728 27.1286 40.1416 27.3507 40.4835C27.5044 40.7103 27.61 41.0475 27.197 41.3001C26.2863 41.8641 24.7026 41.1105 24.6281 41.0732C22.7851 39.9879 21.2441 38.5545 20.158 36.595C19.1092 34.7086 18.5005 32.6855 18.3996 30.5256C18.3732 30.0043 18.5269 29.8194 19.0456 29.7246C19.7287 29.598 20.4329 29.5716 21.1168 29.6718C24.0032 30.0936 26.461 31.3842 28.5213 33.4283C29.6974 34.5929 30.5871 35.9836 31.5032 37.3432C32.4775 38.7867 33.5263 40.1619 34.8609 41.2892C35.3321 41.6846 35.7086 41.9846 36.0681 42.206C34.9827 42.3279 33.1709 42.3543 31.9318 41.3745ZM33.288 32.6544C33.288 32.4228 33.4735 32.238 33.7064 32.238C33.7593 32.238 33.8073 32.2481 33.8493 32.2644C33.9075 32.2854 33.9604 32.3172 34.003 32.3646C34.0775 32.4384 34.1195 32.544 34.1195 32.6544C34.1195 32.8859 33.9339 33.0708 33.701 33.0708C33.4681 33.0708 33.288 32.8866 33.288 32.6544ZM37.4981 34.815C37.228 34.9253 36.9578 35.0201 36.6985 35.0309C36.2956 35.0519 35.8562 34.8888 35.6179 34.6883C35.2468 34.3776 34.9821 34.2035 34.871 33.6612C34.8236 33.4296 34.85 33.0708 34.892 32.8656C34.9875 32.4228 34.8812 32.1384 34.569 31.8805C34.3145 31.6699 33.9915 31.6117 33.6367 31.6117C33.504 31.6117 33.3828 31.5534 33.2927 31.506C33.1445 31.4322 33.0226 31.2481 33.139 31.0213C33.1763 30.9475 33.3564 30.7687 33.3984 30.7369C33.8805 30.4627 34.4363 30.5527 34.9502 30.7579C35.4269 30.9529 35.7871 31.311 36.3064 31.8168C36.8359 32.4282 36.9314 32.5968 37.2334 33.0552C37.4717 33.4134 37.689 33.7824 37.8373 34.2035C37.9274 34.4669 37.8109 34.6829 37.4981 34.815Z" fill="#536DFE"/>
</g>
<defs>
<clipPath id="clip0_2225_1128">
<rect width="32.5" height="32.5" fill="white" transform="translate(16.25 16.25)"/>
</clipPath>
</defs>
</svg>
