<svg width="65" height="65" viewBox="0 0 65 65" fill="none" xmlns="http://www.w3.org/2000/svg">
<path d="M18.5713 0.580078H46.4287C56.3648 0.580152 64.4198 8.6352 64.4199 18.5713V46.4287C64.4198 56.3648 56.3648 64.4198 46.4287 64.4199H18.5713C8.63521 64.4198 0.580152 56.3648 0.580078 46.4287V18.5713C0.580153 8.63521 8.63521 0.580152 18.5713 0.580078Z" fill="#FAFAFA"/>
<path d="M18.5713 0.580078H46.4287C56.3648 0.580152 64.4198 8.6352 64.4199 18.5713V46.4287C64.4198 56.3648 56.3648 64.4198 46.4287 64.4199H18.5713C8.63521 64.4198 0.580152 56.3648 0.580078 46.4287V18.5713C0.580153 8.63521 8.63521 0.580152 18.5713 0.580078Z" stroke="#EEEEEE" stroke-width="1.16071"/>
<g clip-path="url(#clip0_2225_1125)">
<path d="M35.9091 32.5C35.8949 32.2772 35.8854 32.0524 35.8854 31.8229C35.8854 27.7062 37.8219 25.052 40.625 25.052C42.9345 25.052 44.9109 26.8544 45.3646 29.7916H46.7188L46.7194 23.6979H45.3646C45.3646 23.6979 45.0037 24.7176 44.6875 24.4833C43.4017 23.7615 42.1667 23.7168 40.6088 23.7168C36.6817 23.7168 33.1771 27.2593 33.1771 31.7687C33.1771 32.0152 33.1913 32.2582 33.2103 32.5H31.7891C31.8087 32.2582 31.8229 32.0152 31.8229 31.7687C31.8229 27.2593 28.3183 23.7168 24.3912 23.7168C22.8333 23.7168 21.5983 23.7608 20.3125 24.4833C19.9963 24.7176 19.6354 23.6979 19.6354 23.6979H18.2806L18.2812 29.7916H19.6354C20.0891 26.8544 22.0655 25.052 24.375 25.052C27.1781 25.052 29.1146 27.7062 29.1146 31.8229C29.1146 32.0524 29.1051 32.2772 29.0909 32.5H16.25V33.8541H16.9332C17.6665 33.8541 18.2718 34.4371 18.2867 35.1697C18.3124 36.4196 18.4329 37.9207 18.9583 38.5937C19.8176 39.694 20.9896 40.625 24.375 40.625C27.7753 40.625 31.0917 37.5598 31.8229 33.8541H33.1771C33.9083 37.5598 37.2247 40.625 40.625 40.625C44.0104 40.625 45.1824 39.694 46.0417 38.5937C46.5671 37.9207 46.6876 36.4196 46.7133 35.1697C46.7282 34.4371 47.3342 33.8541 48.0668 33.8541H48.75V32.5H35.9091ZM24.0209 39.088C22.9342 39.088 21.2076 39.0839 20.9896 37.9166C20.9158 37.5219 20.928 36.2056 20.951 35.1771C20.9679 34.4412 21.5685 33.8541 22.3052 33.8541H29.1146C28.577 37.0913 26.4164 39.088 24.0209 39.088ZM44.0104 37.9166C43.7924 39.0839 42.0658 39.088 40.9791 39.088C38.5843 39.088 36.423 37.0913 35.8854 33.8541H42.6948C43.4315 33.8541 44.0321 34.4412 44.049 35.1771C44.072 36.2056 44.0842 37.5219 44.0104 37.9166Z" fill="#43A047"/>
</g>
<defs>
<clipPath id="clip0_2225_1125">
<rect width="32.5" height="32.5" fill="white" transform="translate(16.25 16.25)"/>
</clipPath>
</defs>
</svg>
